<svg version="1.1" id="Layer_1" xmlns="http://www.w3.org/2000/svg" xmlns:xlink="http://www.w3.org/1999/xlink" x="0px" y="0px"
	 width="100%" viewBox="0 0 500 500" enable-background="new 0 0 500 500" xml:space="preserve">
<path fill="#FFFFFF" opacity="1.000000" stroke="none" 
	d="
M219.000000,501.000000 
	C146.000015,501.000000 73.500038,501.000000 1.000039,501.000000 
	C1.000026,334.333405 1.000026,167.666779 1.000013,1.000128 
	C167.666565,1.000086 334.333130,1.000086 500.999756,1.000043 
	C500.999847,167.666534 500.999847,334.333069 500.999939,500.999817 
	C407.166656,501.000000 313.333344,501.000000 219.000000,501.000000 
M150.989883,216.338760 
	C156.746613,219.824310 159.639206,225.251892 159.977402,231.656754 
	C160.626633,243.952042 160.933502,256.276215 160.985672,268.590088 
	C161.110611,298.084045 160.973114,327.579010 161.008240,357.073486 
	C161.023956,370.260742 156.948685,380.645386 142.921143,384.549744 
	C142.737137,384.600983 142.671631,385.077942 142.480331,385.518524 
	C186.835495,385.518524 231.101746,385.635834 275.366150,385.403809 
	C282.806061,385.364838 290.339935,384.327423 297.655670,382.872681 
	C326.128448,377.210815 346.410797,361.770355 355.385895,333.280670 
	C360.643402,316.591827 360.744202,299.583374 359.108643,282.348358 
	C355.730896,246.755020 334.768311,222.552429 299.820374,214.883026 
	C291.927551,213.150925 283.814484,212.422485 275.620667,211.204956 
	C275.620667,205.938751 275.620667,200.663834 275.620667,195.429214 
	C294.772858,195.429214 313.736084,194.874969 332.649719,195.605255 
	C347.672852,196.185349 356.941162,205.146225 361.324890,219.336227 
	C361.855896,221.054977 362.644836,222.694046 363.380920,224.536987 
	C363.380920,200.758469 363.380920,177.337585 363.380920,153.843887 
	C285.648773,153.843887 208.286804,153.843887 130.414413,153.843887 
	C130.414413,177.159088 130.414139,200.087982 130.433517,223.016876 
	C130.433548,223.062088 130.724060,223.107040 131.158981,223.233658 
	C132.179443,220.489777 133.112457,217.673965 134.260605,214.948776 
	C138.496796,204.893875 145.820633,198.356735 156.618027,196.247284 
	C161.006271,195.389969 165.538773,194.955292 170.011963,194.906296 
	C184.840805,194.743835 199.672531,194.836823 214.503113,194.856277 
	C215.936050,194.858154 217.368774,195.029831 218.660507,195.113556 
	C218.660507,200.876068 218.660507,206.256409 218.660507,211.938965 
	C193.181732,211.938965 168.109970,211.938965 141.584122,211.938965 
	C145.380676,213.688705 147.860428,214.831573 150.989883,216.338760 
z"/>
<path fill="#024CAE" opacity="1.000000" stroke="none" 
	d="
M150.665039,216.156601 
	C147.860428,214.831573 145.380676,213.688705 141.584122,211.938965 
	C168.109970,211.938965 193.181732,211.938965 218.660507,211.938965 
	C218.660507,206.256409 218.660507,200.876068 218.660507,195.113556 
	C217.368774,195.029831 215.936050,194.858154 214.503113,194.856277 
	C199.672531,194.836823 184.840805,194.743835 170.011963,194.906296 
	C165.538773,194.955292 161.006271,195.389969 156.618027,196.247284 
	C145.820633,198.356735 138.496796,204.893875 134.260605,214.948776 
	C133.112457,217.673965 132.179443,220.489777 131.158981,223.233658 
	C130.724060,223.107040 130.433548,223.062088 130.433517,223.016876 
	C130.414139,200.087982 130.414413,177.159088 130.414413,153.843887 
	C208.286804,153.843887 285.648773,153.843887 363.380920,153.843887 
	C363.380920,177.337585 363.380920,200.758469 363.380920,224.536987 
	C362.644836,222.694046 361.855896,221.054977 361.324890,219.336227 
	C356.941162,205.146225 347.672852,196.185349 332.649719,195.605255 
	C313.736084,194.874969 294.772858,195.429214 275.620667,195.429214 
	C275.620667,200.663834 275.620667,205.938751 275.620667,211.204956 
	C283.814484,212.422485 291.927551,213.150925 299.820374,214.883026 
	C334.768311,222.552429 355.730896,246.755020 359.108643,282.348358 
	C360.744202,299.583374 360.643402,316.591827 355.385895,333.280670 
	C346.410797,361.770355 326.128448,377.210815 297.655670,382.872681 
	C290.339935,384.327423 282.806061,385.364838 275.366150,385.403809 
	C231.101746,385.635834 186.835495,385.518524 142.480331,385.518524 
	C142.671631,385.077942 142.737137,384.600983 142.921143,384.549744 
	C156.948685,380.645386 161.023956,370.260742 161.008240,357.073486 
	C160.973114,327.579010 161.110611,298.084045 160.985672,268.590088 
	C160.933502,256.276215 160.626633,243.952042 159.977402,231.656754 
	C159.639206,225.251892 156.746613,219.824310 150.665039,216.156601 
M275.346558,296.499908 
	C275.711273,314.809814 274.447418,333.179901 276.399109,351.553497 
	C295.577332,348.441010 308.477203,337.928497 313.510590,321.241333 
	C318.196503,305.706238 317.914185,289.982452 312.954498,274.588562 
	C307.640656,258.095276 291.117401,245.795929 275.346680,246.214493 
	C275.346680,262.631073 275.346680,279.065491 275.346558,296.499908 
M204.744049,282.499939 
	C204.744049,305.914001 204.744049,329.328033 204.744049,353.156403 
	C207.257858,353.156403 209.218094,353.156403 211.178329,353.156403 
	C213.288712,353.156403 215.399109,353.156403 218.284622,353.156403 
	C218.284622,316.417999 218.284622,280.286224 218.284622,244.302948 
	C213.870941,244.302948 209.440262,244.302948 204.744141,244.302948 
	C204.744141,256.899872 204.744141,269.199890 204.744049,282.499939 
z"/>
<path fill="#FBFCFE" opacity="1.000000" stroke="none" 
	d="
M275.346619,295.999878 
	C275.346680,279.065491 275.346680,262.631073 275.346680,246.214493 
	C291.117401,245.795929 307.640656,258.095276 312.954498,274.588562 
	C317.914185,289.982452 318.196503,305.706238 313.510590,321.241333 
	C308.477203,337.928497 295.577332,348.441010 276.399109,351.553497 
	C274.447418,333.179901 275.711273,314.809814 275.346619,295.999878 
z"/>
<path fill="#FFFFFF" opacity="1.000000" stroke="none" 
	d="
M204.744095,281.999939 
	C204.744141,269.199890 204.744141,256.899872 204.744141,244.302948 
	C209.440262,244.302948 213.870941,244.302948 218.284622,244.302948 
	C218.284622,280.286224 218.284622,316.417999 218.284622,353.156403 
	C215.399109,353.156403 213.288712,353.156403 211.178329,353.156403 
	C209.218094,353.156403 207.257858,353.156403 204.744049,353.156403 
	C204.744049,329.328033 204.744049,305.914001 204.744095,281.999939 
z"/>
</svg>